/* XPM */
static const char *down[] = {
/* columns rows colors chars-per-pixel */
"32 32 246 2 ",
"   c #004D00",
".  c #004E00",
"X  c #024D02",
"o  c #024F02",
"O  c #054D05",
"+  c #005100",
"@  c #005200",
"#  c #005300",
"$  c #005600",
"%  c #005700",
"&  c #005800",
"*  c #005901",
"=  c #005C00",
"-  c #005D00",
";  c #0A560A",
":  c #125912",
">  c #185C18",
",  c #006000",
"<  c #006200",
"1  c #006500",
"2  c #006700",
"3  c #006A00",
"4  c #006B01",
"5  c #006902",
"6  c #006903",
"7  c #006C00",
"8  c #006F01",
"9  c #076108",
"0  c #0A610A",
"q  c #0E670F",
"w  c #007101",
"e  c #007200",
"r  c #007500",
"t  c #007401",
"y  c #007700",
"u  c #007601",
"i  c #007703",
"p  c #007A01",
"a  c #007903",
"s  c #007A03",
"d  c #027A02",
"f  c #007C00",
"g  c #007D03",
"h  c #027805",
"j  c #067509",
"k  c #0A700D",
"l  c #0F6710",
"z  c #166216",
"x  c #186618",
"c  c #176D18",
"v  c #1A6C1B",
"b  c #1A6F1A",
"n  c #0F7210",
"m  c #19741B",
"M  c #1A781A",
"N  c #246824",
"B  c #2B632B",
"V  c #237023",
"C  c #327F32",
"Z  c #397B39",
"A  c #008000",
"S  c #008300",
"D  c #008003",
"F  c #008103",
"G  c #008303",
"H  c #008400",
"J  c #008600",
"K  c #008403",
"L  c #008503",
"P  c #008703",
"I  c #008404",
"U  c #008604",
"Y  c #038507",
"T  c #008A00",
"R  c #008D00",
"E  c #008F00",
"W  c #008904",
"Q  c #018B04",
"!  c #038D06",
"~  c #09860D",
"^  c #058B09",
"/  c #088808",
"(  c #009400",
")  c #009800",
"_  c #009900",
"`  c #009A00",
"'  c #009B00",
"]  c #009C00",
"[  c #009E00",
"{  c #009F00",
"}  c #0E930F",
"|  c #099C0A",
" . c #0F8812",
".. c #0D8F13",
"X. c #138014",
"o. c #138716",
"O. c #1C811C",
"+. c #1C891C",
"@. c #1B9611",
"#. c #169B17",
"$. c #149F15",
"%. c #149418",
"&. c #1B971B",
"*. c #1C911C",
"=. c #1B9E1B",
"-. c #1B9A1E",
";. c #1D9B1F",
":. c #1C9D1E",
">. c #1D9F1E",
",. c #00A300",
"<. c #03A303",
"1. c #00A400",
"2. c #00A500",
"3. c #00A600",
"4. c #00A700",
"5. c #00AA00",
"6. c #00AB00",
"7. c #00AC00",
"8. c #00AE00",
"9. c #00AF00",
"0. c #0AA40B",
"q. c #0BA40B",
"w. c #0CAA0D",
"e. c #00B000",
"r. c #00B100",
"t. c #00B300",
"y. c #00B400",
"u. c #00B500",
"i. c #00B600",
"p. c #00B700",
"a. c #00B900",
"s. c #00BB00",
"d. c #00BD00",
"f. c #0EB10F",
"g. c #15AB17",
"h. c #16A518",
"j. c #18A01A",
"k. c #1DA41D",
"l. c #1FA91F",
"z. c #1EAA1E",
"x. c #1FAD1F",
"c. c #0FB711",
"v. c #11B613",
"b. c #13B015",
"n. c #2F942F",
"m. c #289F28",
"M. c #2A9D2A",
"N. c #2B9D2B",
"B. c #2D992D",
"V. c #2F982F",
"C. c #368536",
"Z. c #318F31",
"A. c #348A34",
"S. c #388038",
"D. c #3C853C",
"F. c #3D843D",
"G. c #3C8F3C",
"H. c #339533",
"J. c #379137",
"K. c #379F37",
"L. c #3E953E",
"P. c #3B983B",
"I. c #399C39",
"U. c #25A425",
"Y. c #2BA225",
"T. c #21A921",
"R. c #23A823",
"E. c #28A128",
"W. c #2BA82B",
"Q. c #2EA82E",
"!. c #21B021",
"~. c #30A730",
"^. c #32A532",
"/. c #34A334",
"(. c #37A837",
"). c #3FA73F",
"_. c #3AA83A",
"`. c #3CA83C",
"'. c #00C300",
"]. c #00C400",
"[. c #00C500",
"{. c #00C600",
"}. c #00C800",
"|. c #00CC00",
" X c #00D000",
".X c #00D300",
"XX c #3F8540",
"oX c #418D41",
"OX c #438D43",
"+X c #468C46",
"@X c #4F834F",
"#X c #4B8D4B",
"$X c #4E8F4E",
"%X c #4F8F4F",
"&X c #409040",
"*X c #4A9B4A",
"=X c #489E48",
"-X c #4C984C",
";X c #5A9E5A",
":X c #43A343",
">X c #40A540",
",X c #46A046",
"<X c #44A944",
"1X c #46AA46",
"2X c #4FA74F",
"3X c #49AA49",
"4X c #4BA94B",
"5X c #4DA94D",
"6X c #52A552",
"7X c #54A354",
"8X c #57A157",
"9X c #50AC50",
"0X c #52AD52",
"qX c #55AD55",
"wX c #5EA65E",
"eX c #5FA65F",
"rX c #58AE58",
"tX c #5AAD5A",
"yX c #5CAD5C",
"uX c #5EAC5E",
"iX c #5DB05D",
"pX c #5FB15F",
"aX c #60B840",
"sX c #6DA46D",
"dX c #61B261",
"fX c #64B264",
"gX c #66B266",
"hX c #69B369",
"jX c #6AB66A",
"kX c #6CB76C",
"lX c #6EB86E",
"zX c #73A674",
"xX c #70B970",
"cX c #73B973",
"vX c #76BC76",
"bX c #7FB47F",
"nX c #78BD78",
"mX c #7ABF7A",
"MX c #7FC17F",
"NX c #85BF85",
"BX c #82C482",
"VX c #85C385",
"CX c #85C685",
"ZX c #8ECD8E",
"AX c #C7DCC7",
"SX c None",
/* pixels */
"SXSXSXSXSXSXSXSXSXSXSXSXSXSXSXSXSXSXSXSXSXSXSXSXSXSXSXSXSXSXSXSX",
"SXSXSXSXSXSXSXSXSXSXSXSXSXSXSXSXSXSXSXSXSXSXSXSXSXSXSXSXSXSXSXSX",
"SXSXSXSXSXSXSXSXSXSXSXSXSXSXSXSXSXSXSXSXSXSXSXSXSXSXSXSXSXSXSXSX",
"SXSXSXSXSXSXSXSXSXSXSXSXSXSXSXSXSXSXSXSXSXSXSXSXSXSXSXSXSXSXSXSX",
"SXSXSXSXSXSXSXSXSXSXSXSXSXSXSXSXSXSXSXSXSXSXSXSXSXSXSXSXSXSXSXSX",
"SXSXSXSXSXSXSXSXSXSXSXSXSXSXSXSXSXSXSXSXSXSXSXSXSXSXSXSXSXSXSXSX",
"SXSXSXSXSXSXSXSXSXSXSXSXSXSXSXSXSXSXSXSXSXSXSXSXSXSXSXSXSXSXSXSX",
"SXSXSX        + + = < < 8 8 t t p p p G G G G W W W W W SXSXSXSX",
"SXSX@XAXsX@X@X&XG.L.A.H.H.E.E.k.| q.w.f.c.v.g.x.x.$.Y.aX@.SXSXSX",
"SXSXSX  NXZXMXMXjXiX9X<X~.Q.T.T.r.a.}.}..X.X'.a.5.' ;.^ SXSXSXSX",
"SXSXSXSX: NXBXmXlXdX9X<X`.Q.T.x.5.r.a.'.}.'.'.r.3.$...SXSXSXSXSX",
"SXSXSXSX  N BXmXlXdXqX4X`.~.T.x.5.r.a.a.'.a.r.5.q.%.G SXSXSXSXSX",
"SXSXSXSXSX  Z BXlXdXiX4X`.^.U.k.' 5.5.r.r.r.5.3.-.G SXSXSXSXSXSX",
"SXSXSXSXSXSX  %XcXjXtX4X>X^.Y.-.' ' 3.3.3.3.' -.G SXSXSXSXSXSXSX",
"SXSXSXSXSXSXSX  ;XjXtX7X>XI.M.-.( ( ( ' ' ' $.^ SXSXSXSXSXSXSXSX",
"SXSXSXSXSXSXSXSX; wXtX7X=XI.M.+.G W W ( W ..~ SXSXSXSXSXSXSXSXSX",
"SXSXSXSXSXSXSXSX+ z wX7X=XI.H.+.p G G G ~  .p SXSXSXSXSXSXSXSXSX",
"SXSXSXSXSXSXSXSXSX  N wX=XL.Z.O.t t t p o.p SXSXSXSXSXSXSXSXSXSX",
"SXSXSXSXSXSXSXSXSXSX+ C -XoXA.M < 8 8 M p SXSXSXSXSXSXSXSXSXSXSX",
"SXSXSXSXSXSXSXSXSXSXSX= F.oXC.v = < k p SXSXSXSXSXSXSXSXSXSXSXSX",
"SXSXSXSXSXSXSXSXSXSXSXSX9 F.F.x + 0 k SXSXSXSXSXSXSXSXSXSXSXSXSX",
"SXSXSXSXSXSXSXSXSXSXSXSX+ l Z : + k 8 SXSXSXSXSXSXSXSXSXSXSXSXSX",
"SXSXSXSXSXSXSXSXSXSXSXSXSX= v B l 8 SXSXSXSXSXSXSXSXSXSXSXSXSXSX",
"SXSXSXSXSXSXSXSXSXSXSXSXSXSXx zXm SXSXSXSXSXSXSXSXSXSXSXSXSXSXSX",
"SXSXSXSXSXSXSXSXSXSXSXSXSXSXSXoXSXSXSXSXSXSXSXSXSXSXSXSXSXSXSXSX",
"SXSXSXSXSXSXSXSXSXSXSXSXSXSXSXSXSXSXSXSXSXSXSXSXSXSXSXSXSXSXSXSX",
"SXSXSXSXSXSXSXSXSXSXSXSXSXSXSXSXSXSXSXSXSXSXSXSXSXSXSXSXSXSXSXSX",
"SXSXSXSXSXSXSXSXSXSXSXSXSXSXSXSXSXSXSXSXSXSXSXSXSXSXSXSXSXSXSXSX",
"SXSXSXSXSXSXSXSXSXSXSXSXSXSXSXSXSXSXSXSXSXSXSXSXSXSXSXSXSXSXSXSX",
"SXSXSXSXSXSXSXSXSXSXSXSXSXSXSXSXSXSXSXSXSXSXSXSXSXSXSXSXSXSXSXSX",
"SXSXSXSXSXSXSXSXSXSXSXSXSXSXSXSXSXSXSXSXSXSXSXSXSXSXSXSXSXSXSXSX",
"SXSXSXSXSXSXSXSXSXSXSXSXSXSXSXSXSXSXSXSXSXSXSXSXSXSXSXSXSXSXSXSX"
};
