/* XPM */
static const char *left[] = {
/* columns rows colors chars-per-pixel */
"32 32 235 2 ",
"   c #034503",
".  c #004D00",
"X  c #014D01",
"o  c #004E00",
"O  c #004F00",
"+  c #005000",
"@  c #005600",
"#  c #005702",
"$  c #055205",
"%  c #075707",
"&  c #005900",
"*  c #025802",
"=  c #005D00",
"-  c #045D05",
";  c #095509",
":  c #0B550B",
">  c #105C10",
",  c DarkGreen",
"<  c #006600",
"1  c #056405",
"2  c #006B00",
"3  c #006A01",
"4  c #006A02",
"5  c #006E00",
"6  c #076108",
"7  c #0B630C",
"8  c #086C0B",
"9  c #0C690D",
"0  c #0B6C0D",
"q  c #007100",
"w  c #007300",
"e  c #017102",
"r  c #027503",
"t  c #047707",
"y  c #007900",
"u  c #007902",
"i  c #007903",
"p  c #007C00",
"a  c #007E00",
"s  c #007804",
"d  c #037B04",
"f  c #037E05",
"g  c #087008",
"h  c #08740B",
"j  c #0A7B0A",
"k  c #156915",
"l  c #1B611B",
"z  c #1C691C",
"x  c #127A13",
"c  c #266726",
"v  c #2E712E",
"b  c #2B792B",
"n  c #307630",
"m  c #367536",
"M  c #337933",
"N  c #327E32",
"B  c #008300",
"V  c #008700",
"C  c #008204",
"Z  c #058105",
"A  c #048206",
"S  c #078207",
"D  c #008505",
"F  c #018505",
"G  c #008604",
"H  c #058607",
"J  c #008900",
"K  c #008A00",
"L  c #038803",
"P  c #008D00",
"I  c #07870B",
"U  c #068809",
"Y  c #068B09",
"T  c #078D0A",
"R  c #0B8F0B",
"E  c #088F0C",
"W  c #088E0D",
"Q  c #009000",
"!  c #009100",
"~  c #009400",
"^  c #009500",
"/  c #009600",
"(  c #009800",
")  c #009B00",
"_  c #009C00",
"`  c #009F00",
"'  c #09900D",
"]  c #0A910E",
"[  c #0E930D",
"{  c #119E0F",
"}  c #0C8910",
"|  c #148516",
" . c #118814",
".. c #0B9110",
"X. c #0C9111",
"o. c #0D9112",
"O. c #109215",
"+. c #139316",
"@. c #139814",
"#. c #1C9A14",
"$. c #17971B",
"%. c #189D19",
"&. c #1A9D1C",
"*. c #1C9D1F",
"=. c #00A000",
"-. c #00A200",
";. c #01A201",
":. c #00A400",
">. c #00A500",
",. c #00A700",
"<. c #07A407",
"1. c #00A800",
"2. c #00A900",
"3. c #00AA00",
"4. c #00AB00",
"5. c #00AC00",
"6. c #00AD00",
"7. c #00AE00",
"8. c #00AF00",
"9. c #04AC04",
"0. c #0FA20F",
"q. c #0CA90C",
"w. c #00B200",
"e. c #00B300",
"r. c #00B400",
"t. c #00B600",
"y. c #00B700",
"u. c #05B605",
"i. c #00BB00",
"p. c #00BC00",
"a. c #00BD00",
"s. c #0BB50B",
"d. c #2F852F",
"f. c #2A8F2A",
"g. c #2C892C",
"h. c #2B952B",
"j. c #2C9D2C",
"k. c #368137",
"l. c #388338",
"z. c #3D813D",
"x. c #3D843D",
"c. c #3D873D",
"v. c #3B8B3B",
"b. c #379437",
"n. c #319C31",
"m. c #349834",
"M. c #399039",
"N. c #26A926",
"B. c #27AF27",
"V. c #2BA62B",
"C. c #2BA72B",
"Z. c #2DA32D",
"A. c #2FA02F",
"S. c #28A828",
"D. c #29AA29",
"F. c #28AE28",
"G. c #37A737",
"H. c #32A832",
"J. c #35A835",
"K. c #3FA837",
"L. c #3AA53A",
"P. c #3CA33C",
"I. c #3EA03E",
"U. c #3FA93F",
"Y. c #37B737",
"T. c #38B138",
"R. c #00C200",
"E. c #00C500",
"W. c #00C700",
"Q. c #06C106",
"!. c #00CC00",
"~. c #00CE00",
"^. c #06CB06",
"/. c #0AC20A",
"(. c #09CF09",
"). c #07D507",
"_. c #08DA08",
"`. c #3F8140",
"'. c #3F8A41",
"]. c #448544",
"[. c #4C824C",
"{. c #479247",
"}. c #459645",
"|. c #439943",
" X c #409D40",
".X c #4F9F4F",
"XX c #559755",
"oX c #529D52",
"OX c #46A746",
"+X c #41A941",
"@X c #43A843",
"#X c #41AE41",
"$X c #48A648",
"%X c #4AA44A",
"&X c #4DA24D",
"*X c #4BAB4B",
"=X c #4CAF4C",
"-X c #4EAC4E",
";X c #52AB52",
":X c #50AC50",
">X c #55AA55",
",X c #57A957",
"<X c #56AF56",
"1X c #5BA55B",
"2X c #5EA25E",
"3X c #5FA75F",
"4X c #59A859",
"5X c #58AE58",
"6X c #5AAF5A",
"7X c #5CAF5C",
"8X c #5EB05E",
"9X c #64AF64",
"0X c #61B061",
"qX c #60B260",
"wX c #64B464",
"eX c #67B467",
"rX c #69B569",
"tX c #6BB66B",
"yX c #6CB76C",
"uX c #6DB66D",
"iX c #70B970",
"pX c #73BB73",
"aX c #77BB77",
"sX c #76BC76",
"dX c #79BD79",
"fX c #7DC17D",
"gX c #7FC27F",
"hX c #83BA83",
"jX c #83C383",
"kX c #86C286",
"lX c #89C989",
"zX c #8DCA8D",
"xX c #95C195",
"cX c #9BD59B",
"vX c None",
/* pixels */
"vXvXvXvXvXvXvXvXvXvXvXvXvXvXvXvXvXvXvXvXvXvXvXvXvXvXvXvXvXvXvXvX",
"vXvXvXvXvXvXvXvXvXvXvXvXvXvXvXvXvXvXvXvXvXvXvXvXvXvXvXvXvXvXvXvX",
"vXvXvXvXvXvXvXvXvXvXvXvXvXvXvXvXvXvXvXvXvXvXvXvXvXvXvXvXvXvXvXvX",
"vXvXvXvXvXvXvXvXvXvXvXvXvXvXvXvXvXvXvXvXvXvXv [.vXvXvXvXvXvXvXvX",
"vXvXvXvXvXvXvXvXvXvXvXvXvXvXvXvXvXvXvXvXvX; hX> vXvXvXvXvXvXvXvX",
"vXvXvXvXvXvXvXvXvXvXvXvXvXvXvXvXvXvXvXO l hXcXO vXvXvXvXvXvXvXvX",
"vXvXvXvXvXvXvXvXvXvXvXvXvXvXvXvXvXvXO v kXlXlXO vXvXvXvXvXvXvXvX",
"vXvXvXvXvXvXvXvXvXvXvXvXvXvXvXvXvXO ].jXgXfXjXO vXvXvXvXvXvXvXvX",
"vXvXvXvXvXvXvXvXvXvXvXvXvXvXvXvX# XXaXsXsXsXsX# vXvXvXvXvXvXvXvX",
"vXvXvXvXvXvXvXvXvXvXvXvXvXvXO > 2XtXtXtXqXqXtX- vXvXvXvXvXvXvXvX",
"vXvXvXvXvXvXvXvXvXvXvXvXvXO l 0X9X9X7X7X7X5XqX, vXvXvXvXvXvXvXvX",
"vXvXvXvXvXvXvXvXvXvXvXvX# b 1X7X,X,X:X<X*X*X<X2 vXvXvXvXvXvXvXvX",
"vXvXvXvXvXvXvXvXvXvXvX- z.&X&X&X%X$XOXOX@XU.=Xr vXvXvXvXvXvXvXvX",
"vXvXvXvXvXvXvXvXvX# 7 z.{.}. Xb. XP.L.G.H.H.#Xr vXvXvXvXvXvXvXvX",
"vXvXvXvXvXvXvXvX6 k z.v.v.M.b.b.A.A.Z.Z.D.D.T.f vXvXvXvXvXvXvXvX",
"vXvXvXvXvXvXvXk.`.m M M k.f.f.h.j.Z.D.N.B.B.T.j vXvXvXvXvXvXvXvX",
"vXvXvXvXvXvXvX'.v   O # 1 2 h f L K ) =.=.1.1.L vXvXvXvXvXvXvXvX",
"vXvXvXvXvXvXvXvX9 9 ; - , 2 f L K ^ ) 1.e.e.s.W vXvXvXvXvXvXvXvX",
"vXvXvXvXvXvXvXvXvX2 h 9 2 r f L ^ ) =.e.e.i.i.L vXvXvXvXvXvXvXvX",
"vXvXvXvXvXvXvXvXvXvX, r x r f K ^ =.1.e.i.E.^.W vXvXvXvXvXvXvXvX",
"vXvXvXvXvXvXvXvXvXvXvXvXr | L K ^ =.1.i.E.~.).W vXvXvXvXvXvXvXvX",
"vXvXvXvXvXvXvXvXvXvXvXvXvXf | W ^ =.1.i.E.~._.W vXvXvXvXvXvXvXvX",
"vXvXvXvXvXvXvXvXvXvXvXvXvXvXr } @.) 1.e.i.E.(.[ vXvXvXvXvXvXvXvX",
"vXvXvXvXvXvXvXvXvXvXvXvXvXvXvXf I &.=.1.e.i./.[ vXvXvXvXvXvXvXvX",
"vXvXvXvXvXvXvXvXvXvXvXvXvXvXvXvXvXD *.<.1.e.s.[ vXvXvXvXvXvXvXvX",
"vXvXvXvXvXvXvXvXvXvXvXvXvXvXvXvXvXvXL $.0.=.q...vXvXvXvXvXvXvXvX",
"vXvXvXvXvXvXvXvXvXvXvXvXvXvXvXvXvXvXvXL +.%.@...vXvXvXvXvXvXvXvX",
"vXvXvXvXvXvXvXvXvXvXvXvXvXvXvXvXvXvXvXvXL W K.+.vXvXvXvXvXvXvXvX",
"vXvXvXvXvXvXvXvXvXvXvXvXvXvXvXvXvXvXvXvXvXvX[ #.vXvXvXvXvXvXvXvX",
"vXvXvXvXvXvXvXvXvXvXvXvXvXvXvXvXvXvXvXvXvXvXvXvXvXvXvXvXvXvXvXvX",
"vXvXvXvXvXvXvXvXvXvXvXvXvXvXvXvXvXvXvXvXvXvXvXvXvXvXvXvXvXvXvXvX",
"vXvXvXvXvXvXvXvXvXvXvXvXvXvXvXvXvXvXvXvXvXvXvXvXvXvXvXvXvXvXvXvX"
};
