/* XPM */
static const char *mob[] = {
/* columns rows colors chars-per-pixel */
"32 32 234 2 ",
"   c gray20",
".  c #4A372F",
"X  c #50372A",
"o  c #56382B",
"O  c #5F3C2F",
"+  c #5E3C30",
"@  c #6B3B27",
"#  c #623A28",
"$  c #783E26",
"%  c #7B4228",
"&  c #674233",
"*  c #734632",
"=  c #7E4633",
"-  c #7A4B37",
";  c #575252",
":  c #7D665B",
">  c #626060",
",  c #6A6561",
"<  c #804000",
"1  c #994613",
"2  c #BE520E",
"3  c #A54D16",
"4  c #A04A1C",
"5  c #BB4E15",
"6  c #B84719",
"7  c #BD4C1C",
"8  c #B2511F",
"9  c #814427",
"0  c #884224",
"q  c #934625",
"w  c #9B4D27",
"e  c #9F4D2B",
"r  c #814933",
"t  c #884932",
"y  c #8C533C",
"u  c #925439",
"i  c #A34C25",
"p  c #AD4F23",
"a  c #A65122",
"s  c #AF5022",
"d  c #BC5726",
"f  c #BD5429",
"g  c #BE5A2D",
"h  c #C1530E",
"j  c #DF5D0C",
"k  c #C14F14",
"l  c #C34E1A",
"z  c #D24F18",
"x  c #CB5211",
"c  c #CE5A15",
"v  c #C1511F",
"b  c #D35B10",
"n  c #D6551C",
"m  c #E25E0C",
"M  c #DA6014",
"N  c #DA611B",
"B  c #E5640A",
"V  c #E96509",
"C  c #EC6908",
"Z  c #F16E06",
"A  c #F57304",
"S  c #F87703",
"D  c #FC7B01",
"F  c #C55421",
"G  c #CE5620",
"H  c #C45925",
"J  c #CB5A24",
"K  c #CB5C2A",
"L  c #D05720",
"P  c #D15820",
"I  c #DB5D22",
"U  c #CF5F32",
"Y  c #D05F32",
"T  c #DF6427",
"R  c #DA6429",
"E  c #DE7324",
"W  c #C46533",
"Q  c #CF6032",
"!  c #E26628",
"~  c #E56B2C",
"^  c #E96E2E",
"/  c #EA712F",
"(  c #EC7331",
")  c #ED7937",
"_  c #EE7D3B",
"`  c #A3674A",
"'  c #A26C52",
"]  c #A06F5A",
"[  c #BA6E51",
"{  c #B57056",
"}  c #B7725A",
"|  c #B9735B",
" . c #B6785A",
".. c #BC7D5C",
"X. c #D17548",
"o. c #C87955",
"O. c #FF8106",
"+. c #F08216",
"@. c #FF8611",
"#. c #FF8D1E",
"$. c #FF9024",
"%. c #FF932B",
"&. c #EE803F",
"*. c #FF9C3C",
"=. c #AC896C",
"-. c #B28368",
";. c #AB8477",
":. c #A5897B",
">. c #B18574",
",. c #B6897D",
"<. c #BE9273",
"1. c #CC8D52",
"2. c #C88E5B",
"3. c #D8945E",
"4. c #EF8342",
"5. c #E8884E",
"6. c #F08443",
"7. c #F28A49",
"8. c #F3904F",
"9. c #F49554",
"0. c #F69C5C",
"q. c #FFA043",
"w. c #FFA852",
"e. c #FFAB59",
"r. c #E09961",
"t. c #D2A27E",
"y. c #E8A262",
"u. c #EEA46C",
"i. c #F7A160",
"p. c #F8A363",
"a. c #F9AB6B",
"s. c #FFB165",
"d. c #FFB56C",
"f. c #E4A470",
"g. c #E8AF7B",
"h. c #F3B477",
"j. c #FCB374",
"k. c #FFB975",
"l. c #FFBD7C",
"z. c #6F89B6",
"x. c #5F8AC5",
"c. c #5C8CCB",
"v. c #5E95DA",
"b. c #7597CB",
"n. c #6E97D0",
"m. c #6096DB",
"M. c #6499DC",
"N. c #689CDE",
"B. c #7299D1",
"V. c #71A3E1",
"C. c #848484",
"Z. c #898989",
"A. c #978C81",
"S. c #9D918B",
"D. c #988790",
"F. c #939493",
"G. c #989290",
"H. c #9C9C9C",
"J. c #A29185",
"K. c #A29488",
"L. c #B29982",
"P. c #BA9E86",
"I. c #B79A8E",
"U. c #A48F94",
"Y. c #A09995",
"T. c #A89F96",
"R. c #ADA39C",
"E. c #B0A097",
"W. c #B5A59A",
"Q. c #BCAB9E",
"!. c #A4A4A4",
"~. c #A9A7A6",
"^. c #ABABAB",
"/. c #B3AAA5",
"(. c #B4A9AF",
"). c #B9AAB1",
"_. c #A9B2BE",
"`. c #B1B1B1",
"'. c #BDB3B1",
"]. c #B1B5BC",
"[. c #CA9480",
"{. c #CDA581",
"}. c #D4A280",
"|. c #C5A197",
" X c #CDA397",
".X c #C5AB9A",
"XX c #E2AA8C",
"oX c #F5AE85",
"OX c #EEAF92",
"+X c #D0B1A0",
"@X c #CBB9B9",
"#X c #D6BDB7",
"$X c #ECC097",
"%X c #F0C297",
"&X c #E9C4A4",
"*X c #F6C1A2",
"=X c #F5CCAA",
"-X c #F8CEAA",
";X c #E9C7B2",
":X c #E7CAB1",
">X c #E8CAB1",
",X c #E0CCBF",
"<X c #F4CDB5",
"1X c #E5D0BF",
"2X c #F3D3B8",
"3X c #A8B2C6",
"4X c #AEB5CA",
"5X c #B9B9C5",
"6X c #B0BDD4",
"7X c #94BBEE",
"8X c #9ABFF1",
"9X c #B8C1CE",
"0X c #BCC8D7",
"qX c #BEC9D9",
"wX c #9DC2F2",
"eX c #A2C5F4",
"rX c #A7C8F6",
"tX c #A8C9F6",
"yX c #AECDF8",
"uX c #C5C0C8",
"iX c #C2CEDB",
"pX c #D9D3D7",
"aX c #F6DAC0",
"sX c #F3DECD",
"dX c #C9D7E6",
"fX c #C7DEFF",
"gX c #C9DFFF",
"hX c #CDE1FF",
"jX c #D2E4FF",
"kX c #E3EEFF",
"lX c #E6F0FF",
"zX c #EAF2FF",
"xX c #FDFEFF",
"cX c None",
/* pixels */
"cXcXcXcXcXcXcXcX!.~.~.~.~.~.~.qXqX~.`.`.~.`.cXcXcXcXcXcXcXcXcXcX",
"cXcXcXcXcXcXcX!.`.cXcXJ.' :.].6XqXpX[.f cXcX`.cXcXcXcXcXcXcXcXcX",
"cXcXcXcXcXcXcX~.cXcXG ! _ *XxXxXxXxX*X) ! L [ ~.cXcXcXcXcXcXcXcX",
"cXcXcXcXcXcXcXG.G ^ 7.e.j.aXzXzXkXzXaXj.e.5.( K cXcXcXcXcXcXcXcX",
"cXcXcXcXcXcXcXS.7.p.l.l.s.&XhXhXfXjX&Xs.l.l.p.4.! cXcXcXcXcXcXcX",
"cXcXcXcXcX6 ^ R.j.l.w.@.S }.eXeXeXrX}.S @.w.l.j.8.^ 6 cXcXcXcXcX",
"cXcXcXcXcX^ 9./.d.$.S C n  .n.z.z.B. .n C S $.d.l.9.^ cXcXcXcXcX",
"cXcXcXcXT 7.g.R.S S M H s O   r cX  # p H M S O.s.l.9.T cXcXcXcX",
"cXcXcXF 6.j.Q.1.Z c s . cXcXcXU cXcXcXcX. 8 c Z O.d.j.&.v cXcXcX",
"cXcXcX^ p.W.P.S b 1 cXcXcXcXcXU cXcXcXcXcX> a b S %.l.p.^ cXcXcX",
"cXcXv 5.G.L.S B 3 cXcXcXcXcXcXU cXcXcXcXcXcXZ.3 j S e.l.6.g `.cX",
"cXcXX./.{.#.Z 2 o cXcXcXcXcXcXU cXcXcXcXcXcX!.: 2 Z #.l.0.^ cX~.",
"cX] W.f.d.S V 1 cXcXcXcXcXcXcXU cXcXcXcXcXcXcXcX1 V S d.a.( i `.",
"cX/.:XsX,X.XD.& cXcXcXcXcXcXcXU cXcXcXcXcXcXcXcX* U.+X1XsX<XL.~.",
"!.'.xXkXfX8Xv.cXcXcXcXcXcXcXcXU cXcXcXcXcXcXcXcXcXV.yXjXzXxX@X~.",
"dX3XxXkXfX7Xx.cXQ Q Q Q Q Q Q U 3 Q Q Q Y Y Y Y cXb.rXhXzXxX4XqX",
"iXuXxXjXhX7Xc.cX< < < < < < < d < < < < < < < < cXB.yXhXzXxX5X].",
"cX#XxXlXfXwXv.cXcXcXcXcXcXcXcXQ cXcXcXcXcXcXcXcXcXV.yXjXzXxX'.~.",
"!...oX=X$X3. .= cXcXcXcXcXcXcXY cXcXcXcXcXcXcXcXt ..r.%X-XXXR.cX",
"!.i / a.d.S C 6 cXcXcXcXcXcXcXU cXcXcXcXcXcXcXcX5 V S h..XE.` cX",
"H.cX! 9.l.%.Z j cXcXcXcXcXcXcXU cXcXcXcXcXH.H.G.-.=.K.R.<.R cXcX",
"!.cXJ _ j.s.S C x cXcXcXcXcXcXU cXcXcXcXF.H.cX..<.2.y.a.&.J cXcX",
"!.~.9 ^ 0.l.*.S V k cXcXcXcXcXU cXcXcXcXH.cXx B S *.l.0.^ w cXcX",
"cX~.cXF ) a.j.$.S V x cXcXcXcXQ cXcXcXcXH.x V S #.k.a.) J cXcXcX",
"cX~.!.cXI 4.j.k.$.S Z j x cXcXcXcXcXcXW K.Z S $.k.j.6.I % cXcXcX",
"cXcX!.F.= T 7.j.k.q.S Z Z ;.M.v.m.N.;.E :.S 9.k.j.7.! q cXcXcXcX",
"cXcXcXcXC.u n &.a.l.d.*.S t.eXwXwXeXt.+.A.s.l.a.&.n i cXcXcXcXcX",
"cXcXcXcXcXcX- n ^ 9.d.oXk.:XhXhXhXhX:Xh.R.d.0.~ n 0 cXcXcXcXcXcX",
"cXcXcXcXcXcXcXo 6 n ^ 7.p.<XkXzXkXzX2Xu.W.~ n l # cXcXcXcXcXcXcX",
"cXcXcXcXcXcXcXcXcX@ 6 n n OXxXxXxXxXOXo.I.l % cXcXcXcXcXcXcXcXcX",
"cXcXcXcXcXcXcXcXcXcXcX; y {  X).(..X>.R., cXcXcXcXcXcXcXcXcXcXcX",
"cXcXcXcXcXcXcXcXcXcXcXcXcX:.Z._.6X!.!.cXcXcXcXcXcXcXcXcXcXcXcXcX"
};
