/* XPM */
static const char *opencpn[] = {
/* columns rows colors chars-per-pixel */
"32 32 157 2 ",
"   c #010101",
".  c #0B0B0B",
"X  c #111111",
"o  c gray12",
"O  c #202020",
"+  c #2F2F2F",
"@  c #3A3A3A",
"#  c #6C643B",
"$  c #454545",
"%  c #4B4B4B",
"&  c #525252",
"*  c #5D5D5D",
"=  c #7B7447",
"-  c #7C7549",
";  c #626562",
":  c #7C786A",
">  c gray46",
",  c #7C7C7C",
"<  c #8C7D45",
"1  c #847B4B",
"2  c #897F4E",
"3  c #8B814E",
"4  c #918248",
"5  c #9D8C4E",
"6  c #818057",
"7  c #8E8450",
"8  c #998D53",
"9  c #9F9152",
"0  c #A08F4F",
"q  c #A1904F",
"w  c #A49352",
"e  c #A89653",
"r  c #AD9A56",
"t  c #A39659",
"y  c #A69A5C",
"u  c #AD9C5A",
"i  c #B19E57",
"p  c #B19F58",
"a  c #B5A25A",
"s  c #BAA65C",
"d  c #BEA95E",
"f  c #84827C",
"g  c #9C957A",
"h  c #A59D63",
"j  c #A99F67",
"k  c #A38971",
"l  c #A89F7E",
"z  c #A6A067",
"x  c #ADA263",
"c  c #AFA96D",
"v  c #B7A669",
"b  c #B1A96B",
"n  c #AAA775",
"m  c #ABA872",
"M  c #AEAB7E",
"N  c #B1AF7E",
"B  c #B3B176",
"V  c #B5B57E",
"C  c #C0AC5F",
"Z  c #C3AE60",
"A  c #C6B162",
"S  c #CAB464",
"D  c #CFB866",
"F  c #C8B775",
"G  c #D0BD78",
"H  c #848484",
"J  c #85908C",
"K  c gray59",
"L  c #AC898D",
"P  c #A49E86",
"I  c #A6A08B",
"U  c #ADA58A",
"Y  c #BEB287",
"T  c #B6B885",
"R  c #B6B98D",
"E  c #AFA892",
"W  c #B0AA95",
"Q  c #B0AC9C",
"!  c #B6BD9C",
"~  c #8698AC",
"^  c #889AAD",
"/  c #B097A3",
"(  c #97A3B0",
")  c #A7A7A7",
"_  c gray67",
"`  c #B6BCA2",
"'  c #B5B3AC",
"]  c #A8AEB3",
"[  c #B6B6B5",
"{  c gray73",
"}  c #E3B69C",
"|  c #E9BCAF",
" . c #EDB8BD",
".. c #B7C1A8",
"X. c #B8C4B4",
"o. c #B8C6BA",
"O. c #DAC681",
"+. c #D7C78D",
"@. c #DEC888",
"#. c #D5C899",
"$. c #E0CA8D",
"%. c #E3D39C",
"&. c #DACEA5",
"*. c #D5CCA9",
"=. c #E7C4AB",
"-. c #E5D6A3",
";. c #E7D9A6",
":. c #E1D6AF",
">. c #EBDDAC",
",. c #E5DDBE",
"<. c #ECE0B7",
"1. c #EEE4BE",
"2. c #F1E4BD",
"3. c #B9C9C5",
"4. c #B7C8CC",
"5. c #B9CBCD",
"6. c #BACDD5",
"7. c #BACFDE",
"8. c #BACFE1",
"9. c #BAD1E5",
"0. c #BBD3EC",
"q. c #BBD4F0",
"w. c #C3C3C3",
"e. c #CBCBCB",
"r. c gray82",
"t. c gray86",
"y. c #EFC2C8",
"u. c #F4D7CF",
"i. c #EBE3C6",
"p. c #EDE5CA",
"a. c #F4E9C5",
"s. c #F6ECCC",
"d. c #F7EED1",
"f. c #F8EED5",
"g. c #F7E2D8",
"h. c #F4EFDA",
"j. c #F8F1D6",
"k. c #F9F3DC",
"l. c #C0D7F1",
"z. c #C5DAF2",
"x. c #CADDF3",
"c. c #CEE0F4",
"v. c #D4E4F5",
"b. c #DBE8F7",
"n. c #E4E4E4",
"m. c #EBEBEB",
"M. c #F9E5EA",
"N. c #FBF6E3",
"B. c #FBF6EA",
"V. c #FCF9EC",
"C. c #E4EEF9",
"Z. c #EAF2FA",
"A. c #F4F4F4",
"S. c #FDFBF3",
"D. c #F1F6FC",
"F. c #F5F9FD",
"G. c #FFFFFF",
/* pixels */
"f ' W M k L E E U U l 4 3 7 3 3 3 2 2 2 2 2 2 2 1 = 6 - - - = ; ",
"_ d.<.%.} u.d.s.s.2.O.D D S S A Z C d d s s i i p ` V r e e M ^ ",
"Q 1.%.@. .f.d.s.a.>.D S S A A Z C d d s a a p i T 9.N e w j 0.^ ",
"U ;.$.| g.f.d.s.s.O.S S A A C C d s s a a p i b 8.6.b w y 7.0.^ ",
"l =.y.M.N.f.d.s.2.S S A Z C d d s s s a a x x X.0.3.c u 4.q.l.] ",
"/ M.B.N.k.f.d.s.%.A Z C C C s s a a B ! X.o.3.9.q.X.R 9.0.z.F.[ ",
"[ S.V.B.k.j.d.s.G A Z C d s s a a i B 9.0.q.q.q.q.9.0.q.v.G.G.[ ",
"[ S.V.N.N.j.s.2.Z C d s s s a p i i b 5.q.q.q.q.q.q.q.b.G.G.G.{ ",
"[ S.B.N.k.j.d.-.Z v d s s i i i i x T 9.q.q.q.q.q.z.D.G.G.G.G.[ ",
"[ S.B.B.k.j.s.+.s s s s a p i i b R 7.q.q.q.q.q.b.G.G.G.G.G.G.[ ",
"[ S.V.N.k.d.s.F s s a i i u c T o.0.q.q.q.q.c.F.G.G.G.G.G.G.G.[ ",
"[ S.V.N.k.d.s.s a a i i b R 3.0.q.0.q.q.c.Z.G.G.G.G.G.G.G.G.G.{ ",
"[ S.V.N.j.j.1.a a i a V o.0.q.q.z.v.C.F.G.G.G.G.G.G.G.G.G.G.G.[ ",
"[ S.V.N.k.f.s.p i r b X.q.q.q.b.G.G.G.G.G.G.G.G.G.G.G.G.G.G.G.[ ",
"[ S.V.N.j.j.s.p r r x 3.q.q.q.G.G.G.G.G.G.G.G.G.G.G.G.G.G.G.G.[ ",
"[ V.N.N.k.d.s.a r q e N 0.q.v.G.G.G.G.G.G.G.G.G.G.G.G.G.G.G.G.[ ",
"[ V.V.N.j.d.s.v e w q t X.q.C.G.G.G.G.G.G.G.G.G.G.G.G.G.G.G.G.[ ",
"[ S.N.k.j.s.s.u w q 0 h ! q.G.G.G.G.G.G.G.G.G.t._ H K r.G.G.G.[ ",
"[ V.N.N.j.d.#.w 0 0 9 B 3.x.G.G.G.G.G.G.G.r.$           , G.G.[ ",
"[ V.B.k.h.1.w 0 8 w B ..0.b.G.G.G.G.G.G.,   . > [ ) @     r.G.{ ",
"[ S.N.k.:.w q w c V o.q.0.Z.G.G.G.G.G.,   @ n.G.G.G.n.    _ G.[ ",
"' V.N.&.0 t m T X.8.q.q.b.G.G.G.G.G.K   + A.G.G.G.G.G.    [ G.{ ",
"[ V.p.w h V X.0.q.l.b.D.G.G.G.G.G.m.X   t.G.G.G.G.G.t.  . A.G.[ ",
"[ V.,.5 x o.0.q.l.G.G.G.G.G.G.G.G.;   > G.G.G.G.G.G.H   & G.G.[ ",
"' V.i.8 h 3.q.q.b.G.G.G.G.G.G.G.m.    n.G.G.G.G.G.A.o   w.G.G.[ ",
"' V.j.4 8 X.q.q.b.G.G.G.G.G.G.G.K   $ G.G.G.G.G.G.H   * G.G.G.[ ",
"[ V.N.t 4 n 0.q.b.G.G.G.G.G.G.G.%   > G.G.G.G.G.{   X m.G.G.G.[ ",
"' V.N.Y 2 8 4.q.b.G.G.G.G.G.G.G.$   * G.G.G.G.[ . X e.G.G.G.G.[ ",
"' V.N.*.< < ! q.z.G.G.G.G.G.G.G.*     H e._ &   X e.G.G.G.G.G.[ ",
"' N.N.,.< < m 0.q.G.G.G.G.G.G.G.n.O         . > m.G.G.G.G.G.G.[ ",
"' V.N.i.< < z 6.q.C.G.G.G.G.G.G.G.m.[ H H { m.G.G.G.G.G.G.G.G.[ ",
": I P g # # - J ~ ( [ { [ [ [ { [ [ { [ { [ [ [ { [ [ { [ [ { H "
};
