/* XPM */
static const char *pencil[] = {
/* columns rows colors chars-per-pixel */
"32 32 98 2 ",
"   c #0E0C05",
".  c #161616",
"X  c #271F0C",
"o  c #221E13",
"O  c #382E0D",
"+  c #2B2619",
"@  c #302B1A",
"#  c #393010",
"$  c #272724",
"%  c #262625",
"&  c #272625",
"*  c #2B2923",
"=  c #2E2B23",
"-  c #292824",
";  c #292825",
":  c #2C2B25",
">  c #2F2D25",
",  c #2D2B28",
"<  c #312D22",
"1  c #342F21",
"2  c #343125",
"3  c #383220",
"4  c #3D3620",
"5  c #393425",
"6  c #3E3724",
"7  c #453D23",
"8  c #5E4D17",
"9  c #655315",
"0  c #6C5713",
"q  c #735D11",
"w  c #4B4120",
"e  c #7D6821",
"r  c #6F6134",
"t  c #68624F",
"y  c #706648",
"u  c #7B7B7B",
"i  c #876F24",
"p  c #8B7324",
"a  c #90792C",
"s  c #997E28",
"d  c #867643",
"f  c #81734A",
"g  c #AE8500",
"h  c #B98C00",
"j  c #B88D00",
"k  c #B98D00",
"l  c #BA8C00",
"z  c #B78F0D",
"x  c #BA9109",
"c  c #B89012",
"v  c #BD9517",
"b  c #BB941A",
"n  c #BE9718",
"m  c #BE951A",
"M  c #A28525",
"N  c #AA8C25",
"B  c #BB9926",
"V  c #BF9B25",
"C  c #B7952D",
"Z  c #BF9B29",
"A  c #B79833",
"S  c #BC9C33",
"D  c #C69D17",
"F  c #CFA209",
"G  c #DCAE16",
"H  c #E3AF07",
"J  c #E5B00A",
"K  c #E5B10B",
"L  c #E8B208",
"P  c #E9B309",
"I  c #ECB70F",
"U  c #E3B211",
"Y  c #E5B210",
"T  c #E8B81B",
"R  c #EEBD1E",
"E  c #C19B22",
"W  c #C9A227",
"Q  c #CFA92F",
"!  c #E0B424",
"~  c #F3C225",
"^  c #F2C52D",
"/  c #F8CB3E",
"(  c #9D8C5C",
")  c #A18B43",
"_  c #A78F41",
"`  c #BB9F45",
"'  c #BCAB72",
"]  c #C1A856",
"[  c #F7D055",
"{  c #FCD864",
"}  c #AFA78C",
"|  c #A4A29B",
" . c #D1BF89",
".. c #FBDF86",
"X. c #FCE292",
"o. c #CDC4A7",
"O. c #C7C5C0",
"+. c None",
/* pixels */
"+.+.+.+.+.+.+.+.+.+.+.+.+.+.+.+.+.+.+.+.+.+.+.+.+.+.+.+.+.# +.+.",
"+.+.+.+.+.+.+.+.+.+.+.+.+.+.+.+.+.+.+.+.+.+.+.+.+.+.+.o.W   . +.",
"+.+.+.+.+.+.+.+.+.+.+.+.+.+.+.+.+.+.+.+.+.+.+.+.+.^ D | u O X +.",
"+.+.+.+.+.+.+.+.+.+.+.+.+.+.+.+.+.+.+.+.+.+.+.[ E 6 $ f O.z +.+.",
"+.+.+.+.+.+.+.+.+.+.+.+.+.+.+.+.+.+.+.+.+...S 3 & e U k +.+.+.+.",
"+.+.+.+.+.+.+.+.+.+.+.+.+.+.+.+.+.+.+.X.` 3 = p U k +.+.+.+.+.+.",
"+.+.+.+.+.+.+.+.+.+.+.+.+.+.+.+.F { ) < = a P k +.+.+.+.+.+.+.+.",
"+.+.+.+.+.+.+.+.+.+.+.+.+.+.J / i = < M J j +.+.+.+.+.+.+.+.+.+.",
"+.+.+.+.+.+.+.+.+.+.+.+.J ~ q $ < N ! k +.+.+.+.+.+.+.+.+.+.+.+.",
"+.+.+.+.+.+.+.+.+.+.P R 0 $ 6 C Q D +.+.+.+.+.+.+.+.+.+.+.+.+.+.",
"+.+.+.+.+.+.+.+.I T 9 $ 6 V Z m +.+.+.+.+.+.+.+.+.+.+.+.+.+.+.+.",
"+.+.+.+.+.+.( G 8 $ 7 v m V +.+.+.+.+.+.+.+.+.+.+.+.+.+.+.+.+.+.",
"+.+.+.+.+.}  ., w x v +.+.+.+.+.+.+.+.+.+.+.+.+.+.+.+.+.+.+.+.+.",
"+.+.+.t ' ] A a g +.+.+.+.+.+.+.+.+.+.+.+.+.+.+.+.+.+.+.+.+.+.+.",
"+.+.+ r ) d y +.+.+.+.+.+.+.+.+.+.+.+.+.+.+.+.+.+.+.+.+.+.+.+.+.",
"+.o @ +.+.+.+.+.+.+.+.+.+.+.+.+.+.+.+.+.+.+.+.+.+.+.+.+.+.+.+.+.",
"+.+.+.+.+.+.+.+.+.+.+.+.+.+.+.+.+.+.+.+.+.+.+.+.+.+.+.+.+.+.+.+.",
"+.+.+.+.+.+.+.+.+.+.+.+.+.+.+.+.+.+.+.+.+.+.+.+.+.+.+.+.+.+.+.+.",
"+.+.+.+.+.+.+.+.+.+.+.+.+.+.+.+.+.+.+.+.+.+.+.+.+.+.+.+.+.+.+.+.",
"+.+.+.+.+.+.+.+.+.+.+.+.+.+.+.+.+.+.+.+.+.+.+.+.+.+.+.+.+.+.+.+.",
"+.+.+.+.+.+.+.+.+.+.+.+.+.+.+.+.+.+.+.+.+.+.+.+.+.+.+.+.+.+.+.+.",
"+.+.+.+.+.+.+.+.+.+.+.+.+.+.+.+.+.+.+.+.+.+.+.+.+.+.+.+.+.+.+.+.",
"+.+.+.+.+.+.+.+.+.+.+.+.+.+.+.+.+.+.+.+.+.+.+.+.+.+.+.+.+.+.+.+.",
"+.+.+.+.+.+.+.+.+.+.+.+.+.+.+.+.+.+.+.+.+.+.+.+.+.+.+.+.+.+.+.+.",
"+.+.+.+.+.+.+.+.+.+.+.+.+.+.+.+.+.+.+.+.+.+.+.+.+.+.+.+.+.+.+.+.",
"+.+.+.+.+.+.+.+.+.+.+.+.+.+.+.+.+.+.+.+.+.+.+.+.+.+.+.+.+.+.+.+.",
"+.+.+.+.+.+.+.+.+.+.+.+.+.+.+.+.+.+.+.+.+.+.+.+.+.+.+.+.+.+.+.+.",
"+.+.+.+.+.+.+.+.+.+.+.+.+.+.+.+.+.+.+.+.+.+.+.+.+.+.+.+.+.+.+.+.",
"+.+.+.+.+.+.+.+.+.+.+.+.+.+.+.+.+.+.+.+.+.+.+.+.+.+.+.+.+.+.+.+.",
"+.+.+.+.+.+.+.+.+.+.+.+.+.+.+.+.+.+.+.+.+.+.+.+.+.+.+.+.+.+.+.+.",
"+.+.+.+.+.+.+.+.+.+.+.+.+.+.+.+.+.+.+.+.+.+.+.+.+.+.+.+.+.+.+.+.",
"+.+.+.+.+.+.+.+.+.+.+.+.+.+.+.+.+.+.+.+.+.+.+.+.+.+.+.+.+.+.+.+."
};
