/* XPM */
static const char *right[] = {
/* columns rows colors chars-per-pixel */
"32 32 235 2 ",
"   c #024402",
".  c #004D00",
"X  c #014D01",
"o  c #004E00",
"O  c #004F00",
"+  c #005000",
"@  c #005600",
"#  c #005702",
"$  c #065306",
"%  c #065606",
"&  c #005900",
"*  c #025802",
"=  c #005D00",
"-  c #005C01",
";  c #035E04",
":  c #095509",
">  c #0C550C",
",  c #115C11",
"<  c DarkGreen",
"1  c #006600",
"2  c #006702",
"3  c #056405",
"4  c #006B00",
"5  c #006A01",
"6  c #006A02",
"7  c #006E00",
"8  c #0B630C",
"9  c #0A680B",
"0  c #096B0B",
"q  c #007100",
"w  c #007300",
"e  c #017102",
"r  c #027503",
"t  c #047707",
"y  c #007900",
"u  c #007902",
"i  c #007903",
"p  c #007C00",
"a  c #007E00",
"s  c #007804",
"d  c #037B04",
"f  c #037E05",
"g  c #07730A",
"h  c #087008",
"j  c #097B09",
"k  c #146915",
"l  c #1B611B",
"z  c #1E6B1E",
"x  c #0F7810",
"c  c #266726",
"v  c #2F712F",
"b  c #2E752F",
"n  c #2D7B2D",
"m  c #367536",
"M  c #337933",
"N  c #327E32",
"B  c #008300",
"V  c #008700",
"C  c #008204",
"Z  c #048004",
"A  c #048206",
"S  c #078207",
"D  c #008505",
"F  c #018505",
"G  c #008604",
"H  c #058607",
"J  c #008900",
"K  c #008A00",
"L  c #008D00",
"P  c #048904",
"I  c #06860A",
"U  c #068809",
"Y  c #068B09",
"T  c #078D0A",
"R  c #098D09",
"E  c #0B880F",
"W  c #088D0D",
"Q  c #088F0C",
"!  c #009000",
"~  c #009100",
"^  c #009400",
"/  c #009500",
"(  c #009600",
")  c #009800",
"_  c #009B00",
"`  c #009C00",
"'  c #009F00",
"]  c #09900D",
"[  c #0A910E",
"{  c #0D930D",
"}  c #119E0F",
"|  c #0F8712",
" . c #118313",
".. c #0B9110",
"X. c #0C9111",
"o. c #0D9112",
"O. c #0E9013",
"+. c #0F9610",
"@. c #139316",
"#. c #139A14",
"$. c #1C9A14",
"%. c #149518",
"&. c #169A18",
"*. c #189A1B",
"=. c #00A000",
"-. c #00A200",
";. c #00A400",
":. c #00A500",
">. c #00A700",
",. c #05A305",
"<. c #00A800",
"1. c #00A900",
"2. c #00AA00",
"3. c #00AB00",
"4. c #00AC00",
"5. c #00AD00",
"6. c #00AE00",
"7. c #00AF00",
"8. c #04AC04",
"9. c #0CA00C",
"0. c #0CA90C",
"q. c #00B200",
"w. c #00B300",
"e. c #00B400",
"r. c #00B600",
"t. c #00B700",
"y. c #05B605",
"u. c #00BB00",
"i. c #00BC00",
"p. c #00BD00",
"a. c #0BB50B",
"s. c #2F842F",
"d. c #2A8F2A",
"f. c #2C892C",
"g. c #2B952B",
"h. c #2C9D2C",
"j. c #378238",
"k. c #388338",
"l. c #3D803D",
"z. c #3D853D",
"x. c #3D873D",
"c. c #3B8B3B",
"v. c #379437",
"b. c #319C31",
"n. c #349934",
"m. c #399039",
"M. c #26A926",
"N. c #2BA62B",
"B. c #2DA32D",
"V. c #2FA02F",
"C. c #2EA42E",
"Z. c #28A828",
"A. c #2DA82D",
"S. c #2CAC2C",
"D. c #2CAF2C",
"F. c #2DB12D",
"G. c #37A737",
"H. c #3AA632",
"J. c #32A832",
"K. c #35A835",
"L. c #3AA53A",
"P. c #3CA23C",
"I. c #3EA03E",
"U. c #3FA93F",
"Y. c #38B138",
"T. c #3EBA3E",
"R. c #00C200",
"E. c #00C500",
"W. c #00C700",
"Q. c #06C106",
"!. c #00CC00",
"~. c #00CE00",
"^. c #06CB06",
"/. c #0AC20A",
"(. c #09CF09",
"). c #07D507",
"_. c #08DA08",
"`. c #418241",
"'. c #458645",
"]. c #4C824C",
"[. c #479247",
"{. c #459645",
"}. c #439943",
"|. c #409D40",
" X c #489049",
".X c #4F9F4F",
"XX c #529D52",
"oX c #579857",
"OX c #46A746",
"+X c #41A941",
"@X c #43A843",
"#X c #41AE41",
"$X c #48A648",
"%X c #4AA44A",
"&X c #4DA24D",
"*X c #4BAB4B",
"=X c #4CAF4C",
"-X c #4EAC4E",
";X c #52AB52",
":X c #50AC50",
">X c #55AA55",
",X c #57A957",
"<X c #56AF56",
"1X c #5BA55B",
"2X c #5EA35E",
"3X c #59A859",
"4X c #58AE58",
"5X c #5AAF5A",
"6X c #5CAF5C",
"7X c #5FB05F",
"8X c #60A760",
"9X c #64AF64",
"0X c #61B061",
"qX c #60B260",
"wX c #64B364",
"eX c #67B467",
"rX c #69B569",
"tX c #6BB66B",
"yX c #6CB76C",
"uX c #6DB66D",
"iX c #70B970",
"pX c #73BB73",
"aX c #77BB77",
"sX c #76BC76",
"dX c #78BD78",
"fX c #7DC17D",
"gX c #7FC27F",
"hX c #83BA83",
"jX c #83C383",
"kX c #86C286",
"lX c #89C989",
"zX c #8DCA8D",
"xX c #95C195",
"cX c #9BD59B",
"vX c None",
/* pixels */
"vXvXvXvXvXvXvXvXvXvXvXvXvXvXvXvXvXvXvXvXvXvXvXvXvXvXvXvXvXvXvXvX",
"vXvXvXvXvXvXvXvXvXvXvXvXvXvXvXvXvXvXvXvXvXvXvXvXvXvXvXvXvXvXvXvX",
"vXvXvXvXvXvXvXvXvXvXvXvXvXvXvXvXvXvXvXvXvXvXvXvXvXvXvXvXvXvXvXvX",
"vXvXvXvXvXvXvX$.o.vXvXvXvXvXvXvXvXvXvXvXvXvXvXvXvXvXvXvXvXvXvXvX",
"vXvXvXvXvXvXvX@.H.U A vXvXvXvXvXvXvXvXvXvXvXvXvXvXvXvXvXvXvXvXvX",
"vXvXvXvXvXvXvXo.} #.o.K vXvXvXvXvXvXvXvXvXvXvXvXvXvXvXvXvXvXvXvX",
"vXvXvXvXvXvXvXo.0.` } %.A vXvXvXvXvXvXvXvXvXvXvXvXvXvXvXvXvXvXvX",
"vXvXvXvXvXvXvX[ a.3.8.8.*.K vXvXvXvXvXvXvXvXvXvXvXvXvXvXvXvXvXvX",
"vXvXvXvXvXvXvX[ /.u.e.3.` @.I p vXvXvXvXvXvXvXvXvXvXvXvXvXvXvXvX",
"vXvXvXvXvXvXvX[ (.!.u.e.8.` o.E p vXvXvXvXvXvXvXvXvXvXvXvXvXvXvX",
"vXvXvXvXvXvXvX[ _.!.R.u.3.8.( R | s vXvXvXvXvXvXvXvXvXvXvXvXvXvX",
"vXvXvXvXvXvXvXU ).!.R.e.3.` ( K p  .p vXvXvXvXvXvXvXvXvXvXvXvXvX",
"vXvXvXvXvXvXvXU !.R.u.e.3.` ( A p s x g 6 vXvXvXvXvXvXvXvXvXvXvX",
"vXvXvXvXvXvXvXU /.u.e.3.8.` ( K p s < 9 g 6 vXvXvXvXvXvXvXvXvXvX",
"vXvXvXvXvXvXvXI u.3.3.8.` ( K A s s < % % 0 6 vXvXvXvXvXvXvXvXvX",
"vXvXvXvXvXvXvXA 8.8.8.` ( ( A A j 0 < & X   b  XvXvXvXvXvXvXvXvX",
"vXvXvXvXvXvXvXp T.F.S.S.S.V.h.g.d.f.s.N N m `.z.vXvXvXvXvXvXvXvX",
"vXvXvXvXvXvXvXp Y.M.S.S.V.V.b.v.v.m.c.z.m k & vXvXvXvXvXvXvXvXvX",
"vXvXvXvXvXvXvXs OXS.G.G.G.L.v.@X}.{.[.z.9 % vXvXvXvXvXvXvXvXvXvX",
"vXvXvXvXvXvXvXs :XG.G.OXOX%X%X.X.XXXk.& vXvXvXvXvXvXvXvXvXvXvXvX",
"vXvXvXvXvXvXvX6 7X=X>X=X>X>X>X6X1Xn % vXvXvXvXvXvXvXvXvXvXvXvXvX",
"vXvXvXvXvXvXvX< 7X:X7X7X6X9X9X8Xz % vXvXvXvXvXvXvXvXvXvXvXvXvXvX",
"vXvXvXvXvXvXvX& iXwXwXwXtXtX1X, X vXvXvXvXvXvXvXvXvXvXvXvXvXvXvX",
"vXvXvXvXvXvXvX% sXiXsXsXaXoX: vXvXvXvXvXvXvXvXvXvXvXvXvXvXvXvXvX",
"vXvXvXvXvXvXvXX kXfXgXkX`.% vXvXvXvXvXvXvXvXvXvXvXvXvXvXvXvXvXvX",
"vXvXvXvXvXvXvXX lXlXkXb X vXvXvXvXvXvXvXvXvXvXvXvXvXvXvXvXvXvXvX",
"vXvXvXvXvXvXvXX cXhXl X vXvXvXvXvXvXvXvXvXvXvXvXvXvXvXvXvXvXvXvX",
"vXvXvXvXvXvXvX: xX: vXvXvXvXvXvXvXvXvXvXvXvXvXvXvXvXvXvXvXvXvXvX",
"vXvXvXvXvXvXvX].c vXvXvXvXvXvXvXvXvXvXvXvXvXvXvXvXvXvXvXvXvXvXvX",
"vXvXvXvXvXvXvXvXvXvXvXvXvXvXvXvXvXvXvXvXvXvXvXvXvXvXvXvXvXvXvXvX",
"vXvXvXvXvXvXvXvXvXvXvXvXvXvXvXvXvXvXvXvXvXvXvXvXvXvXvXvXvXvXvXvX",
"vXvXvXvXvXvXvXvXvXvXvXvXvXvXvXvXvXvXvXvXvXvXvXvXvXvXvXvXvXvXvXvX"
};
