/* XPM */
static const char *up[] = {
/* columns rows colors chars-per-pixel */
"32 32 244 2 ",
"   c #004D00",
".  c #004E00",
"X  c #024D02",
"o  c #024F02",
"O  c #054D05",
"+  c #005200",
"@  c #005300",
"#  c #005600",
"$  c #005700",
"%  c #005800",
"&  c #005A01",
"*  c #005C00",
"=  c #005D00",
"-  c #0B560B",
";  c #125912",
":  c #185C18",
">  c #006000",
",  c #006100",
"<  c #006600",
"1  c #006700",
"2  c #006A00",
"3  c #006A01",
"4  c #006903",
"5  c #006A02",
"6  c #006C00",
"7  c #006E01",
"8  c #076108",
"9  c #0A610A",
"0  c #007001",
"q  c #007200",
"w  c #007500",
"e  c #007401",
"r  c #007501",
"t  c #007700",
"y  c #007703",
"u  c #007901",
"i  c #007903",
"p  c #007A03",
"a  c #027A02",
"s  c #007C00",
"d  c #007D03",
"f  c #027805",
"g  c #067509",
"h  c #0A700D",
"j  c #0F6710",
"k  c #106711",
"l  c #176317",
"z  c #186618",
"x  c #176D18",
"c  c #1A6F1A",
"v  c #1C6E1D",
"b  c #0F7210",
"n  c #19731B",
"m  c #1A781A",
"M  c #256A25",
"N  c #2C632C",
"B  c #257325",
"V  c #3A7C3A",
"C  c #008000",
"Z  c #008300",
"A  c #008003",
"S  c #008400",
"D  c #008600",
"F  c #008403",
"G  c #008503",
"H  c #008603",
"J  c #008404",
"K  c #008604",
"L  c #038507",
"P  c #008A00",
"I  c #008D00",
"U  c #008F00",
"Y  c #008804",
"T  c #008A04",
"R  c #008C04",
"E  c #018D04",
"W  c #09860D",
"Q  c #068C0A",
"!  c #088808",
"~  c #009400",
"^  c #009800",
"/  c #009900",
"(  c #009A00",
")  c #009B00",
"_  c #009C00",
"`  c #009E00",
"'  c #009F00",
"]  c #0E930F",
"[  c #099C0A",
"{  c #0F8812",
"}  c #0D8F13",
"|  c #138015",
" . c #138716",
".. c #1C811C",
"X. c #1C891C",
"o. c #169B17",
"O. c #149F15",
"+. c #1B9811",
"@. c #149418",
"#. c #1B971B",
"$. c #1C911C",
"%. c #1B9A1E",
"&. c #1E9B1F",
"*. c #1C9E1C",
"=. c #1C9D1E",
"-. c #1D9F1E",
";. c #00A300",
":. c #03A303",
">. c #00A400",
",. c #00A600",
"<. c #00A700",
"1. c #00AA00",
"2. c #00AB00",
"3. c #00AC00",
"4. c #00AE00",
"5. c #00AF00",
"6. c #0AA40B",
"7. c #0BA40B",
"8. c #0CAA0D",
"9. c #00B000",
"0. c #00B100",
"q. c #00B300",
"w. c #00B400",
"e. c #00B500",
"r. c #00B600",
"t. c #00B700",
"y. c #00B900",
"u. c #00BB00",
"i. c #00BD00",
"p. c #00BE00",
"a. c #0EB10F",
"s. c #15AB17",
"d. c #16A518",
"f. c #18A01A",
"g. c #1DA41D",
"h. c #1FA91F",
"j. c #1EAA1E",
"k. c #1FAD1F",
"l. c #0FB711",
"z. c #11B613",
"x. c #13B015",
"c. c #2F942F",
"v. c #289F28",
"b. c #2A9D2A",
"n. c #2B9D2B",
"m. c #2D992D",
"M. c #2F982F",
"N. c #348034",
"B. c #368536",
"V. c #318F31",
"C. c #348A34",
"Z. c #388038",
"A. c #3C843D",
"S. c #3D863D",
"D. c #3E853E",
"F. c #3C8F3C",
"G. c #339533",
"H. c #379137",
"J. c #379F37",
"K. c #3E953E",
"L. c #3B983B",
"P. c #399C39",
"I. c #25A525",
"U. c #2BA225",
"Y. c #21A921",
"T. c #23A823",
"R. c #28A128",
"E. c #2BA82B",
"W. c #2EA82E",
"Q. c #21B021",
"!. c #30A730",
"~. c #32A632",
"^. c #34A334",
"/. c #37A837",
"(. c #3FA73F",
"). c #3AA83A",
"_. c #3CA83C",
"`. c #00C300",
"'. c #00C400",
"]. c #00C500",
"[. c #00C600",
"{. c #00C800",
"}. c #00CC00",
"|. c #00D000",
" X c #00D300",
".X c #418D41",
"XX c #438D43",
"oX c #468C46",
"OX c #4B8D4B",
"+X c #4F8F4F",
"@X c #409040",
"#X c #4F904F",
"$X c #4A9B4A",
"%X c #489E48",
"&X c #4C984C",
"*X c #518651",
"=X c #5C9F5C",
"-X c #43A343",
";X c #40A540",
":X c #46A046",
">X c #44A944",
",X c #46AA46",
"<X c #4FA74F",
"1X c #49AA49",
"2X c #4BAA4B",
"3X c #4DA94D",
"4X c #52A552",
"5X c #54A354",
"6X c #50AC50",
"7X c #52AD52",
"8X c #55AD55",
"9X c #58A158",
"0X c #5EA65E",
"qX c #58AE58",
"wX c #5AAD5A",
"eX c #5CAD5C",
"rX c #5EAC5E",
"tX c #5DB05D",
"yX c #5FB15F",
"uX c #60B840",
"iX c #60A760",
"pX c #6DA46D",
"aX c #61B261",
"sX c #64B264",
"dX c #66B266",
"fX c #68B268",
"gX c #6AB66A",
"hX c #6CB76C",
"jX c #6EB86E",
"kX c #73A675",
"lX c #70B970",
"zX c #73B973",
"xX c #76BC76",
"cX c #7FB47F",
"vX c #78BD78",
"bX c #7ABF7A",
"nX c #7FC17F",
"mX c #85BF85",
"MX c #82C482",
"NX c #85C385",
"BX c #85C685",
"VX c #8ECD8E",
"CX c #C6DCC6",
"ZX c None",
/* pixels */
"ZXZXZXZXZXZXZXZXZXZXZXZXZXZXZXZXZXZXZXZXZXZXZXZXZXZXZXZXZXZXZXZX",
"ZXZXZXZXZXZXZXZXZXZXZXZXZXZXZXZXZXZXZXZXZXZXZXZXZXZXZXZXZXZXZXZX",
"ZXZXZXZXZXZXZXZXZXZXZXZXZXZXZXZXZXZXZXZXZXZXZXZXZXZXZXZXZXZXZXZX",
"ZXZXZXZXZXZXZXZXZXZXZXZXZXZXZXZXZXZXZXZXZXZXZXZXZXZXZXZXZXZXZXZX",
"ZXZXZXZXZXZXZXZXZXZXZXZXZXZXZXZXZXZXZXZXZXZXZXZXZXZXZXZXZXZXZXZX",
"ZXZXZXZXZXZXZXZXZXZXZXZXZXZXZXZXZXZXZXZXZXZXZXZXZXZXZXZXZXZXZXZX",
"ZXZXZXZXZXZXZXZXZXZXZXZXZXZXZXZXZXZXZXZXZXZXZXZXZXZXZXZXZXZXZXZX",
"ZXZXZXZXZXZXZXZXZXZXZXZXZXZXZXD.ZXZXZXZXZXZXZXZXZXZXZXZXZXZXZXZX",
"ZXZXZXZXZXZXZXZXZXZXZXZXZXZXn kXx ZXZXZXZXZXZXZXZXZXZXZXZXZXZXZX",
"ZXZXZXZXZXZXZXZXZXZXZXZXZX4 k N c = ZXZXZXZXZXZXZXZXZXZXZXZXZXZX",
"ZXZXZXZXZXZXZXZXZXZXZXZX3 g O : V k + ZXZXZXZXZXZXZXZXZXZXZXZXZX",
"ZXZXZXZXZXZXZXZXZXZXZXZXg 9 + z Z.D.8 ZXZXZXZXZXZXZXZXZXZXZXZXZX",
"ZXZXZXZXZXZXZXZXZXZXZXy b = = c B.XXZ.= ZXZXZXZXZXZXZXZXZXZXZXZX",
"ZXZXZXZXZXZXZXZXZXZXy  .3 3 3 m C.@X&XZ.+ ZXZXZXZXZXZXZXZXZXZXZX",
"ZXZXZXZXZXZXZXZXZXp  .p p y 3 ..G.@X&X9XB O ZXZXZXZXZXZXZXZXZXZX",
"ZXZXZXZXZXZXZXZXy { ! S S S p X.c.L.:X5XiXk O ZXZXZXZXZXZXZXZXZX",
"ZXZXZXZXZXZXZXZXW ] ~ P P P S X.m.L.-X5XiXiX- ZXZXZXZXZXZXZXZXZX",
"ZXZXZXZXZXZXZXA o.~ ) ) ) ~ ~ *.m.^.-X3XeXgX9XO ZXZXZXZXZXZXZXZX",
"ZXZXZXZXZXZXS &.,.,.,.,.,.) ~ *.R.^.-X3XeXaXxX+XO ZXZXZXZXZXZXZX",
"ZXZXZXZXZXA %.,.,.5.0.5.5.,.) g.I.!._.3XeXaXgXMXV O ZXZXZXZXZXZX",
"ZXZXZXZXP @.6.5.0.u.u.u.u.5.,.k.T.!._.3X7XaXlXvXMXM O ZXZXZXZXZX",
"ZXZXZXZX{ o.,.0.u.{.{.].u.0.5.k.T.W._.>X7XyXgXvXMXMX; ZXZXZXZXZX",
"ZXZXZX} *.) 5.u.]. X X{.].u.0.T.k.W.!.>X6XtXgXxXMXVXcXO ZXZXZXZX",
"ZXZX+.uXU.*.d.s.x.z.l.a.8.6.[ &.R.m.M.G.H.K..XXXOX+XpXCX*XZXZXZX",
"ZXZXZX~ T T T A S S S A d p y y y 3 3 4 4 = + + O O O O ZXZXZXZX",
"ZXZXZXZXZXZXZXZXZXZXZXZXZXZXZXZXZXZXZXZXZXZXZXZXZXZXZXZXZXZXZXZX",
"ZXZXZXZXZXZXZXZXZXZXZXZXZXZXZXZXZXZXZXZXZXZXZXZXZXZXZXZXZXZXZXZX",
"ZXZXZXZXZXZXZXZXZXZXZXZXZXZXZXZXZXZXZXZXZXZXZXZXZXZXZXZXZXZXZXZX",
"ZXZXZXZXZXZXZXZXZXZXZXZXZXZXZXZXZXZXZXZXZXZXZXZXZXZXZXZXZXZXZXZX",
"ZXZXZXZXZXZXZXZXZXZXZXZXZXZXZXZXZXZXZXZXZXZXZXZXZXZXZXZXZXZXZXZX",
"ZXZXZXZXZXZXZXZXZXZXZXZXZXZXZXZXZXZXZXZXZXZXZXZXZXZXZXZXZXZXZXZX",
"ZXZXZXZXZXZXZXZXZXZXZXZXZXZXZXZXZXZXZXZXZXZXZXZXZXZXZXZXZXZXZXZX"
};
